Coordinates
version=1
nRows=17
nColumns=36
inDegrees=yes

Units are S.I. units (second, meters, Newtons, ...)
If the header above contains a line with 'inDegrees', this indicates whether rotational values are in degrees (yes) or radians (no).

endheader
time	pelvis_tilt	pelvis_list	pelvis_rotation	pelvis_tx	pelvis_ty	pelvis_tz	hip_flexion_r	hip_adduction_r	hip_rotation_r	knee_angle_r	knee_angle_r_beta	ankle_angle_r	subtalar_angle_r	mtp_angle_r	hip_flexion_l	hip_adduction_l	hip_rotation_l	knee_angle_l	knee_angle_l_beta	ankle_angle_l	subtalar_angle_l	mtp_angle_l	lumbar_extension	lumbar_bending	lumbar_rotation	arm_flex_r	arm_add_r	arm_rot_r	elbow_flex_r	pro_sup_r	arm_flex_l	arm_add_l	arm_rot_l	elbow_flex_l	pro_sup_l
      0.00000000	     -0.60178210	     -0.14814450	      3.49581080	     -0.97799981	      1.28763000	     -0.06057186	     -0.98058175	     -2.52410526	     -4.38125339	      3.88726682	      0.06784560	      6.75729708	     -6.41437275	     -6.22102008	      1.33242026	     -2.07142584	     -3.19218076	      5.28111972	      0.09217293	      7.74501984	     -1.97358945	     -6.22102008	     -9.42354390	      2.01809416	     -1.71422058	      4.33157651	    -12.83057718	     14.04913766	     29.91863307	     74.97308761	      4.80351864	    -11.22174206	     21.69130609	     31.75596852	     67.43349293
      0.00416670	     -1.36939147	     -0.01226302	      2.86543707	     -0.97797245	      1.28865502	     -0.06021426	      0.25278681	     -2.56387637	     -3.28594635	      4.61582865	      0.08056141	      8.65892096	     -5.44969523	     -6.37191298	      2.09777209	     -1.55155941	     -2.78336689	      5.06679816	      0.08843231	      7.38028853	     -2.15399924	     -6.37191298	     -8.55868602	      1.76501389	     -1.43541970	      4.33125352	    -12.48885407	     12.08317749	     30.24728947	     73.67713665	      4.61022625	    -10.78292640	     20.55116922	     32.04742445	     66.85325899
      0.00833330	     -1.82951926	      0.45387615	      2.25777519	     -0.97886245	      1.29350941	     -0.06039199	      0.56147656	     -3.01206238	     -3.51632642	      3.93977025	      0.06876196	      8.32008900	     -5.08672699	     -6.37888870	      2.33712564	     -1.02517791	     -3.30320077	      4.63264398	      0.08085489	      7.00932433	     -2.17138939	     -6.37888870	     -8.28287235	      0.95935231	     -1.21668733	      4.54356141	    -12.01946398	     11.44092655	     30.40755521	     73.65980750	      4.80122998	    -10.88507327	     20.30286750	     31.95869964	     66.93117236
      0.01250000	     -1.32036330	      0.64648194	      1.84434922	     -0.97959451	      1.29254018	     -0.05975152	     -0.01837444	     -3.27917398	     -3.48559006	      3.51943009	      0.06142564	      8.52616870	     -4.28745382	     -6.73993447	      1.34127103	     -0.75093487	     -3.46277554	      3.73917113	      0.06526085	      6.63025827	     -2.42750589	     -6.73993447	     -9.21272676	      0.62850927	      0.22184348	      3.18496379	    -10.91522544	      2.84427637	     32.19910944	     78.69636520	      5.87315126	    -10.47183959	     19.36879795	     31.32554951	     72.67456462
      0.01666670	     -1.11053858	      0.71850116	      1.56598218	     -0.97957309	      1.29465295	     -0.05824538	     -0.37798185	     -3.30327832	     -3.22620929	      3.06177910	      0.05343813	      8.20356562	     -4.07657032	     -6.81048067	      0.78132296	     -0.62832608	     -3.53819778	      3.08138262	      0.05378027	      6.29987950	     -2.58624383	     -6.81048067	     -9.59139393	      0.53255426	      0.45619488	      3.12954538	    -10.71040049	      2.22057972	     32.65176236	     77.90493461	      5.95443147	    -10.31607338	     18.60658431	     31.43719491	     72.12992278
      0.02083330	     -0.89887048	      0.74386916	      1.39432899	     -0.97954001	      1.29245371	     -0.05841670	     -0.64570055	     -3.31301803	     -3.06957933	      2.91118682	      0.05080980	      7.97831401	     -4.13361367	     -6.91299805	      0.42384038	     -0.55654224	     -3.48685912	      2.83064096	      0.04940400	      6.18608435	     -2.94071079	     -6.91299805	     -9.93189732	      0.52584939	      0.76740813	      3.00562179	    -10.64820694	      1.80965013	     33.23953648	     76.48504921	      6.02121584	    -10.22428653	     18.11794096	     31.79065023	     71.25080003
      0.02500000	     -0.83169645	      0.75957176	      1.32205378	     -0.97866989	      1.29259943	     -0.05873856	     -0.76815621	     -3.33061189	     -2.90692439	      2.80109147	      0.04888827	      7.72906978	     -4.28527798	     -7.06294374	      0.25286872	     -0.51655250	     -3.47767604	      2.69290716	      0.04700010	      6.13873718	     -3.12302691	     -7.06294374	     -9.99451485	      0.53313575	      1.16820622	      2.71771900	    -10.60232708	      0.49024953	     33.58406840	     82.39429771	      6.25671331	    -10.20202492	     17.88993928	     31.60919066	     78.63634645
      0.02916670	     -0.77966050	      0.75350654	      1.24833506	     -0.97921230	      1.29209488	     -0.05874892	     -0.85314494	     -3.32603201	     -2.75667142	      2.73230923	      0.04768779	      7.42943619	     -4.47852156	     -7.24905225	      0.13450847	     -0.49229664	     -3.43781167	      2.62013600	      0.04573000	      6.02811761	     -3.55179222	     -7.24905225	    -10.11904674	      0.56700598	      1.19294505	      2.74796762	    -10.65689415	      0.57750751	     33.76046000	     83.56871070	      6.05243671	    -10.10716491	     16.65173727	     32.03624508	     81.41479434
      0.03333330	     -0.94730144	      0.74295353	      1.22199885	     -0.97800097	      1.28982814	     -0.05812710	     -0.70835483	     -3.30968899	     -2.63005492	      2.71331895	      0.04735635	      7.32480758	     -4.59585116	     -7.26159632	      0.28456578	     -0.50706663	     -3.44356790	      2.63248495	      0.04594553	      6.03767621	     -3.61397080	     -7.26159632	     -9.84324701	      0.57362632	      1.26932782	      2.41297406	    -10.70316736	      0.63196478	     34.26741651	     82.84286275	      5.74388575	    -10.20834249	     16.68242550	     32.57829359	     80.76642630
      0.03750000	     -0.58674874	      0.77256594	      1.18714168	     -0.97767989	      1.29285376	     -0.05879532	     -1.18551498	     -3.33673474	     -2.40268575	      2.63482206	      0.04598632	      7.11654623	     -4.87425653	     -7.29284595	     -0.17465110	     -0.48460535	     -3.24539163	      2.56091858	      0.04469646	      5.88284068	     -4.07400667	     -7.29284595	    -10.31824106	      0.56087970	      1.30483752	      2.55951433	    -10.75255291	      0.93951978	     34.17471906	     81.31819590	      5.91823467	    -10.24571340	     17.07759871	     32.45554840	     79.53828501
      0.04166670	     -0.56119988	      0.77474502	      1.14318959	     -0.97780052	      1.29004295	     -0.05884105	     -1.22736072	     -3.33806370	     -2.29592435	      2.63817727	      0.04604488	      7.05203891	     -4.93144674	     -7.32078006	     -0.25314328	     -0.47928439	     -3.08781777	      2.52750457	      0.04411328	      5.74905816	     -4.52947397	     -7.32078006	    -10.32740793	      0.57034199	      1.33504329	      2.51826567	    -10.87294616	      1.38842212	     34.28058945	     80.11589442	      5.90180633	    -10.37397617	     17.71713325	     32.54607778	     78.69770462
      0.04583330	     -0.52196904	      0.78646114	      1.10757202	     -0.97690822	      1.29288991	     -0.05902548	     -1.32978809	     -3.36456683	     -2.14633111	      2.59923438	      0.04536520	      6.84254162	     -5.08506112	     -7.34434090	     -0.39471169	     -0.47172448	     -3.02269956	      2.38013644	      0.04154122	      5.46657615	     -4.72002741	     -7.34434090	    -10.34159891	      0.57155618	      1.34325042	      2.42857081	    -10.95460183	      1.69614242	     34.45325732	     78.86650044	      5.80815262	    -10.44928718	     18.19586739	     32.65094863	     77.76257873
      0.05000000	     -0.57928610	      0.72270461	      1.13301577	     -0.97858142	      1.29249348	     -0.05756675	     -1.28085621	     -3.26166556	     -1.99965599	      2.56734529	      0.04480863	      6.88627342	     -5.05234301	     -7.37608235	     -0.33764475	     -0.56051946	     -2.76274967	      2.32647770	      0.04060470	      5.32343622	     -5.18904171	     -7.37608235	    -10.25046136	      0.59662053	      1.42459692	      2.36410095	    -11.16729789	      2.97096598	     34.37314585	     79.92319286	      6.10755923	    -10.83609171	     20.32159568	     32.38242177	     79.80449789
      0.05416670	     -0.66558159	      0.75407302	      0.98239276	     -0.97855225	      1.29334534	     -0.05745554	     -1.17280559	     -3.28698462	     -1.68116265	      2.52008981	      0.04398386	      6.91200053	     -4.97302177	     -7.42523006	     -0.30336460	     -0.53305306	     -2.81796955	      2.22595937	      0.03885032	      5.14016748	     -5.09058403	     -7.42523006	    -10.13357010	      0.60428107	      1.57514189	      2.33035519	    -11.05930899	      1.44393312	     34.43789262	     84.45322690	      5.96407083	    -10.64626971	     18.99387785	     32.26084328	     85.86126299
      0.05833330	     -0.63486281	      0.72554065	      0.94754025	     -0.97748640	      1.28748361	     -0.05725149	     -1.22502194	     -3.23782465	     -1.46560244	      2.45246480	      0.04280359	      7.04015559	     -4.98827113	     -7.42797264	     -0.38990166	     -0.57610336	     -2.81482290	      2.16579723	      0.03780029	      5.11587886	     -5.32061172	     -7.42797264	    -10.15612925	      0.63138353	      1.50274953	      2.31383033	    -11.11377094	      1.70106468	     34.70068166	     83.83682982	      5.73513536	    -10.76592779	     18.87207261	     32.62298826	     85.40171283
      0.06250000	     -0.69059250	      0.71383761	      0.85821651	     -0.97705690	      1.28828021	     -0.05751988	     -1.14538248	     -3.22336838	     -1.16176032	      2.42720148	      0.04236266	      7.04121019	     -5.20549989	     -7.44083919	     -0.38471699	     -0.60853809	     -3.02793225	      2.09529094	      0.03656973	      5.13847157	     -5.25231942	     -7.44083919	     -9.99075434	      0.65322868	      1.55236184	      2.27172243	    -11.16705043	      2.00535952	     34.74080462	     82.25106506	      5.65946838	    -10.82617718	     19.31373462	     32.51644840	     83.88767259
      0.06666670	     -0.78378982	      0.69946265	      0.78342337	     -0.97666207	      1.28735022	     -0.05756117	     -1.03269803	     -3.21470780	     -1.01716139	      2.41390792	      0.04213064	      7.11592998	     -5.26106786	     -7.46644519	     -0.35847515	     -0.61638153	     -3.13221294	      2.01063622	      0.03509222	      5.19168343	     -5.26861745	     -7.46644519	     -9.79315077	      0.67433532	      1.65243608	      2.13607627	    -11.12999096	      1.42234701	     34.82119637	     85.06759193	      5.52736134	    -10.79060184	     18.79849734	     32.53749744	     87.56870288
